<?xml version="1.0" encoding="UTF-8"?>
<svg version="1.1" xmlns="http://www.w3.org/2000/svg" width="500" height="500">
<path d="M0 0 C1.6125911 3.2251822 1.59020266 6.51243884 1 10 C-2.50730091 14.64201591 -6.91282513 17.49743665 -12.6875 18.4375 C-15 18 -15 18 -16.8125 16.1875 C-18 14 -18 14 -18 11 C-31.98856641 15.64307994 -31.98856641 15.64307994 -44 24 C-44.33 24.99 -44.66 25.98 -45 27 C-44.11699219 27.17015625 -43.23398438 27.3403125 -42.32421875 27.515625 C-31.22679576 29.75656541 -21.35010421 32.46296439 -12 39 C-12.433125 37.2675 -12.433125 37.2675 -12.875 35.5 C-13.24092816 32.70114409 -13.21726175 31.39223765 -11.8359375 28.8984375 C-10.76797053 27.53585896 -9.67057329 26.19590127 -8.546875 24.87890625 C-6.79953411 22.91373518 -6.79953411 22.91373518 -5.5 19.8125 C-3.52238203 16.10446631 -1.53638551 14.26862467 2 12 C3.9921875 11.796875 3.9921875 11.796875 6.0625 11.875 C10.30284344 12.00961408 11.6328073 11.37684191 15 9 C15.66 9 16.32 9 17 9 C17 8.34 17 7.68 17 7 C16.21625 7.04125 15.4325 7.0825 14.625 7.125 C12 7 12 7 10 5 C10.375 2.875 10.375 2.875 11 1 C11.59167969 1.13277344 12.18335938 1.26554687 12.79296875 1.40234375 C13.97826172 1.66724609 13.97826172 1.66724609 15.1875 1.9375 C15.96480469 2.11152344 16.74210938 2.28554687 17.54296875 2.46484375 C18.35378906 2.64144531 19.16460937 2.81804687 20 3 C20.80050781 3.23589844 21.60101563 3.47179687 22.42578125 3.71484375 C25.88101879 4.09759389 27.86420242 3.07290653 31 1.625 C39.22866734 -2.1324782 46.96538192 -2.92607527 56 -2 C59.4375 -0 59.4375 -0 61 3 C60.95107563 6.03331072 60.71615817 8.13536732 60 11 C59.7525 12.19625 59.505 13.3925 59.25 14.625 C57.73583743 18.71323893 56.03292769 20.89124912 53 24 C52.34 24 51.68 24 51 24 C51.103125 24.825 51.20625 25.65 51.3125 26.5 C50.88830632 31.25096921 48.71557702 34.17879519 46 38 C47.09918816 38.98475214 48.2045602 39.96260473 49.3125 40.9375 C49.92738281 41.48277344 50.54226563 42.02804688 51.17578125 42.58984375 C53.05241958 44.20081559 53.05241958 44.20081559 56 45 C56.22300781 44.18144531 56.44601562 43.36289063 56.67578125 42.51953125 C57.75434854 39.65289664 58.80012495 37.55734521 60.41796875 35.01171875 C60.86720703 34.30466797 61.31644531 33.59761719 61.77929688 32.86914062 C62.71624718 31.41758239 63.66679954 29.97471218 64.63085938 28.54101562 C67.75076017 23.56091349 68.24239507 20.69646894 67.20825195 14.93481445 C67 13 67 13 68.1875 10.765625 C68.785625 10.26546875 69.38375 9.7653125 70 9.25 C70.6496875 8.69699219 71.299375 8.14398438 71.96875 7.57421875 C72.97421875 6.79498047 72.97421875 6.79498047 74 6 C74.5878125 5.49082031 75.175625 4.98164063 75.78125 4.45703125 C78.90115647 1.92565259 80.66985943 1.04401874 84.75 0.5 C88 1 88 1 90 2.0625 C91.60421479 5.17066615 90.67674476 7.64046123 90 11 C88.62060547 14.08276367 88.62060547 14.08276367 86.8671875 17.16796875 C86.22523438 18.30943359 85.58328125 19.45089844 84.921875 20.62695312 C84.23978875 21.81392015 83.5574964 23.00076876 82.875 24.1875 C82.21514382 25.35425159 81.5562823 26.52156629 80.8984375 27.68945312 C78.29178882 32.29504966 75.68342862 36.88858978 72.91113281 41.39697266 C72.26241211 42.45835449 71.61369141 43.51973633 70.9453125 44.61328125 C70.35508301 45.55598877 69.76485352 46.49869629 69.15673828 47.4699707 C67.77447255 49.89793119 67.77447255 49.89793119 68.31591797 52.33666992 C68.54166504 52.88556885 68.76741211 53.43446777 69 54 C71.71357535 54.87134188 71.71357535 54.87134188 75 55 C78.16666667 53.25 78.16666667 53.25 81 51 C82.11375 50.505 82.11375 50.505 83.25 50 C85.14520156 49.13609387 85.14520156 49.13609387 85.875 47.1875 C87.82604527 43.39380086 91.0126421 40.77662283 94.94921875 39.23828125 C96.61584763 38.76161863 98.30703278 38.37245279 100 38 C100 37.34 100 36.68 100 36 C99.01 35.67 98.02 35.34 97 35 C95.22751496 31.45502992 95.35843259 27.86139639 96 24 C98.07059142 19.7643928 100.71053521 16.17893924 104.1875 13 C106.63118472 10.30352031 107.31075243 7.48780611 108.2890625 4.0234375 C109 2 109 2 111 0 C113.125 0.375 113.125 0.375 115 1 C115.33 2.32 115.66 3.64 116 5 C117.05058594 4.69964844 118.10117187 4.39929688 119.18359375 4.08984375 C133.42688328 0.17200631 133.42688328 0.17200631 141 2 C143 4 143 4 143.5 7.1875 C142.84006082 12.21953628 140.99630582 14.9066252 137 18 C134.27256658 19.10465942 131.93844851 19.54403385 129 20 C127 17 127 17 127 14 C125.02 14.99 123.04 15.98 121 17 C121.9305602 22.96700464 121.9305602 22.96700464 124.6875 28.1875 C126 30 126 30 125.6875 33.25 C125.3471875 34.61125 125.3471875 34.61125 125 36 C125.721875 35.731875 126.44375 35.46375 127.1875 35.1875 C128.5796875 35.0946875 128.5796875 35.0946875 130 35 C132.5625 37.375 132.5625 37.375 135 40 C138.05133626 41.25643258 138.76820321 41.0772656 142 40 C143.63109367 41.63109367 143.24872283 43.44187222 143.3125 45.6875 C143.29069112 50.75442898 142.22879419 53.1658069 139 57 C139.41572266 57.81404297 139.41572266 57.81404297 139.83984375 58.64453125 C140.20207031 59.35996094 140.56429688 60.07539063 140.9375 60.8125 C141.29714844 61.52019531 141.65679687 62.22789062 142.02734375 62.95703125 C143.69992394 66.47012137 144.17722162 69.47206594 144.4375 73.3125 C144.90178005 79.36958726 144.90178005 79.36958726 147 85 C149.84979639 86.11680706 149.84979639 86.11680706 153 87 C154.71230248 88.61974559 156.37163262 90.2958946 158 92 C159.51625928 93.06901734 161.03751173 94.13097218 162.5625 95.1875 C168.96481597 100.0902702 170.63066097 106.19992855 171.6875 113.9375 C171.99608737 116.14906883 171.99608737 116.14906883 173 118 C175.87957992 119.66517145 178.74071663 120.41654804 182 121 C182.02578125 121.73605469 182.0515625 122.47210938 182.078125 123.23046875 C182.49933414 130.93137625 182.49933414 130.93137625 187 137 C187.6290625 137.556875 188.258125 138.11375 188.90625 138.6875 C191.47976122 141.52988553 193.05330026 144.63388486 194.6875 148.0625 C195.14866211 148.99932617 195.14866211 148.99932617 195.61914062 149.95507812 C199.07573293 157.04222691 199.2816049 162.73558818 199.35009766 170.54931641 C199.36657242 171.9225367 199.39375003 173.29567429 199.43212891 174.66845703 C199.64774443 182.43624051 199.64914811 188.42109494 195.28320312 195.00097656 C193.18418589 198.27090676 192.22023589 201.87925501 191.0625 205.5625 C188.35921901 213.61808482 185.28990239 219.43658469 178.5625 224.8125 C172.95857442 229.3478278 169.50992734 235.9220712 166.375 242.3125 C165 245 165 245 162.578125 247.6875 C159.70845232 251.07009679 158.56098369 254.46556511 157.375 258.6875 C154.9337651 267.17409025 154.9337651 267.17409025 152 269 C149.58203125 269.1875 149.58203125 269.1875 146.8125 269 C137.56111694 268.7808883 132.01903138 272.23170028 125 278 C122.53416108 276.56159396 120.25212847 275.22691562 118.125 273.3125 C115.00875462 271.38776021 112.58940538 271.67951738 109 272 C108.29875 272.350625 107.5975 272.70125 106.875 273.0625 C104.20792826 274.39603587 102.80399155 273.88907049 100 273 C98.9171875 272.319375 98.9171875 272.319375 97.8125 271.625 C95.13661682 270.07893416 93.08758534 269.44495374 90.125 268.6875 C84.43493393 267.07389917 80.03861873 264.27307644 76.87109375 259.1875 C75.41100287 255.52090406 75.15598795 251.67178888 74.66015625 247.77734375 C73.95810856 244.8237585 73.51988435 243.66628084 71 242 C69.03275556 241.81543982 69.03275556 241.81543982 67 242.25 C66.319375 242.35828125 65.63875 242.4665625 64.9375 242.578125 C62.79854406 243.00762476 62.79854406 243.00762476 60 244 C58.60560336 244.06665376 57.20830125 244.08538199 55.8125 244.0625 C54.554375 244.041875 53.29625 244.02125 52 244 C52 240 52 240 53 239 C54.84891946 238.76636119 56.70488031 238.58696365 58.5625 238.4375 C59.57441406 238.35371094 60.58632813 238.26992188 61.62890625 238.18359375 C62.41136719 238.12300781 63.19382812 238.06242188 64 238 C64.33 235.69 64.66 233.38 65 231 C64.278125 231.804375 63.55625 232.60875 62.8125 233.4375 C59.97484311 236.02292072 58.72833853 236.68042813 55 237 C54.67 235.68 54.34 234.36 54 233 C54.99 232.34 55.98 231.68 57 231 C58.38734612 226.37551292 59.28355516 221.77629894 60 217 C59.278125 217.9075 58.55625 218.815 57.8125 219.75 C56.06609545 221.87240099 54.62141761 223.27942986 52.375 224.9375 C49.23168819 227.66721815 48.41865356 230.1173692 47 234 C42.38834951 232.54368932 42.38834951 232.54368932 40.75 230.25 C40 228 40 228 39.6875 225.0625 C38.79537169 221.08847387 37.01549521 219.65650769 34 217 C31.05938132 214.39868347 29.65707977 211.55088522 28 208 C24.70232588 208.3080872 23.32509188 208.65705994 21.0078125 211.1015625 C20.38648438 211.93429687 19.76515625 212.76703125 19.125 213.625 C17.03125 216.11328125 17.03125 216.11328125 15 218 C11.625 217.8125 11.625 217.8125 8 217 C5.52455061 217.76376934 5.52455061 217.76376934 3 218.9375 C-2.42545053 221.30496932 -6.34936273 221.91960885 -12.0625 219.9375 C-15.74029061 217.51172321 -18.52178192 214.64702306 -21 211 C-21 210.34 -21 209.68 -21 209 C-29.85094372 209.69951007 -36.17140773 211.69402621 -43.63671875 216.5390625 C-46 218 -46 218 -48 218 C-48.37125 219.36125 -48.37125 219.36125 -48.75 220.75 C-50.09083888 224.23618109 -51.13332101 225.66474919 -54 228 C-56.56201172 228.59008789 -56.56201172 228.59008789 -59.4296875 228.72265625 C-60.47253906 228.78646484 -61.51539063 228.85027344 -62.58984375 228.91601562 C-63.67394531 228.96435547 -64.75804687 229.01269531 -65.875 229.0625 C-75.95816343 229.55156362 -81.81220693 230.45281727 -89 238 C-89.89460938 238.64710938 -90.78921875 239.29421875 -91.7109375 239.9609375 C-97.2114312 244.48966608 -100.3677151 251.30253701 -103.96484375 257.3359375 C-104.55652344 258.30273438 -105.14820313 259.26953125 -105.7578125 260.265625 C-106.2852002 261.15024414 -106.81258789 262.03486328 -107.35595703 262.94628906 C-109.1927679 265.24080243 -110.12965442 265.67405475 -113 266 C-115.49510258 263.50489742 -116.00327416 261.97667164 -116.5 258.4375 C-116.32910464 252.7872723 -113.53901036 247.93293441 -111 243 C-111.61488281 242.81824219 -112.22976562 242.63648438 -112.86328125 242.44921875 C-113.67152344 242.19785156 -114.47976562 241.94648438 -115.3125 241.6875 C-116.11300781 241.44386719 -116.91351563 241.20023438 -117.73828125 240.94921875 C-120.14006453 239.94121644 -121.39122643 239.03267264 -123 237 C-123.375 234.4375 -123.375 234.4375 -123 232 C-122.01 231.34 -121.02 230.68 -120 230 C-119.59684204 227.73496648 -119.59684204 227.73496648 -119.75 225.1875 C-119.76546875 224.33542969 -119.7809375 223.48335937 -119.796875 222.60546875 C-119.99981202 220.00241121 -120.43310353 217.54646238 -121 215 C-122.16015625 215.27714844 -123.3203125 215.55429687 -124.515625 215.83984375 C-133.33787488 217.90386014 -141.91019461 219.70841628 -151 220 C-152.01707031 220.03996094 -153.03414062 220.07992187 -154.08203125 220.12109375 C-163.04870098 220.31283386 -170.81354293 219.8494418 -178 214 C-181.75933544 210.24066456 -182.80674628 207.31447742 -183 202 C-182.38900276 199.32688707 -181.57016868 198.37967454 -179.3046875 196.87109375 C-177.56618275 195.86107176 -175.78492607 194.92551722 -174 194 C-172 196 -172 196 -172 199 C-170.948125 199.474375 -169.89625 199.94875 -168.8125 200.4375 C-168.22082031 200.70433594 -167.62914062 200.97117187 -167.01953125 201.24609375 C-154.97338757 205.74301006 -141.13318509 202.67854809 -129 200 C-131.09757467 193.97872683 -133.4243063 189.08910672 -137.4375 184.1328125 C-139.23112538 181.68451386 -140.5154157 179.14927955 -141.875 176.4375 C-144.75896522 170.99251358 -148.17998017 167.73191834 -153 164 C-154.46814867 162.7825739 -155.9267258 161.55350308 -157.375 160.3125 C-158.02210938 159.77238281 -158.66921875 159.23226562 -159.3359375 158.67578125 C-162.64031604 155.34813244 -163.30901504 152.36894699 -163.375 147.75 C-163.21007126 139.49256753 -159.57223399 133.86550947 -154 128 C-153.34 128 -152.68 128 -152 128 C-151.34 125.69 -150.68 123.38 -150 121 C-149.30777344 121.11730469 -148.61554688 121.23460937 -147.90234375 121.35546875 C-143.65310514 120.8350371 -141.47118491 118.21438097 -138.5625 115.3125 C-126.43859178 103.55987755 -126.43859178 103.55987755 -121.4375 103.125 C-115.62608497 102.22488609 -111.24401806 99.55673409 -106.18359375 96.671875 C-103.2925464 95.15363173 -100.70101302 94.16202232 -97.5625 93.3125 C-92.18728566 91.82758618 -88.45850093 90.33149788 -85.375 85.40234375 C-84.3168298 83.47169187 -83.28893044 81.52403692 -82.296875 79.55859375 C-81 77 -81 77 -79 74 C-79.31506627 70.85778033 -79.31506627 70.85778033 -80 68 C-80.59167969 67.97421875 -81.18335938 67.9484375 -81.79296875 67.921875 C-87.02355666 67.54643313 -90.24604672 66.98857536 -94 63 C-95.89455962 57.31632113 -95.14711018 52.50196983 -93 47 C-93.66 47 -94.32 47 -95 47 C-95.2578125 47.57105469 -95.515625 48.14210937 -95.78125 48.73046875 C-100.3094648 57.16281747 -108.53452211 63.76726106 -117 68 C-120.40814662 68.47653732 -123.59768384 68.54479788 -127 68 C-130.28459842 65.43801324 -131.51290768 64.02143311 -132.46875 60.0546875 C-133.7487414 42.71080406 -117.88426744 20.90765815 -108.81640625 7.01171875 C-106.72141651 4.6914613 -104.95788483 3.91831416 -102 3 C-100.35 4.32 -98.7 5.64 -97 7 C-97.59687408 10.95095004 -98.82274883 13.87103862 -100.765625 17.3515625 C-101.32636719 18.36863281 -101.88710937 19.38570312 -102.46484375 20.43359375 C-103.05394531 21.48675781 -103.64304687 22.53992188 -104.25 23.625 C-112.20757256 37.82622167 -112.20757256 37.82622167 -118 53 C-111.82104409 49.89430431 -107.43458869 45.8660576 -102.625 40.9375 C-101.87621582 40.17743652 -101.12743164 39.41737305 -100.35595703 38.63427734 C-92.42162721 30.50335687 -85.61113171 22.21158917 -79.62890625 12.5234375 C-73.88757396 3.62919132 -73.88757396 3.62919132 -69 2 C-66.66700175 1.96045766 -64.33291811 1.95598268 -62 2 C-61.11500245 4.95657664 -60.80017242 6.50304976 -61.96875 9.40917969 C-62.72671875 10.65296387 -62.72671875 10.65296387 -63.5 11.921875 C-64.05469971 12.85692871 -64.60939941 13.79198242 -65.1809082 14.75537109 C-65.7812085 15.74359863 -66.38150879 16.73182617 -67 17.75 C-71.13307439 24.81375931 -75.14345649 31.81991706 -78.3125 39.375 C-78.59544922 40.02049805 -78.87839844 40.66599609 -79.16992188 41.33105469 C-81.16981372 46.3049459 -81.29201762 50.74368281 -81 56 C-74.2499719 54.1015546 -69.39631964 48.49387579 -64.6875 43.5625 C-62 41 -62 41 -59 41 C-58.505 43.475 -58.505 43.475 -58 46 C-57.34 46 -56.68 46 -56 46 C-55.67 44.68 -55.34 43.36 -55 42 C-54.34 42 -53.68 42 -53 42 C-53.35698198 38.78716214 -53.5419687 37.38863262 -56.0625 35.25 C-58.64294756 32.25335122 -58.63589675 30.23995395 -58.4453125 26.37109375 C-57.29259582 20.23338301 -53.11738321 15.38089621 -48.328125 11.5703125 C-36.39305517 3.52014795 -13.95594206 -9.26017802 0 0 Z M-68 61 C-68 61.66 -68 62.32 -68 63 C-67.34 63 -66.68 63 -66 63 C-66 62.34 -66 61.68 -66 61 C-66.66 61 -67.32 61 -68 61 Z M85 61 C85 62.32 85 63.64 85 65 C87.31 65.33 89.62 65.66 92 66 C90.20142332 63.4390706 90.20142332 63.4390706 88 61 C87.01 61 86.02 61 85 61 Z M-6 202 C-6.33 203.32 -6.66 204.64 -7 206 C-4.92798943 207.84587664 -4.92798943 207.84587664 -2 209 C2.69989873 207.59827582 5.80394538 205.70742336 9 202 C7.99908108 200.77854054 7.99908108 200.77854054 6 200.875 C1.97375665 201.04276014 -2.00148536 201.51216379 -6 202 Z " fill="#DA3113" transform="translate(259,126)"/>
<path d="M0 0 C0.89976562 -0.020625 1.79953125 -0.04125 2.7265625 -0.0625 C10.65401177 -0.10806005 18.72102615 0.81869782 24.875 6.25 C25.32804907 9.37603861 24.73932012 12.22770414 23.875 15.25 C20.62195638 19.28377409 14.50070506 19.96404298 9.53686523 20.50463867 C7.14972537 20.66449944 4.76563024 20.78155517 2.375 20.875 C1.14136719 20.93300781 1.14136719 20.93300781 -0.1171875 20.9921875 C-2.1194701 21.08531692 -4.12220262 21.16868985 -6.125 21.25 C-5.25 16.5 -5.25 16.5 -4.125 14.25 C-23.35733633 17.13105958 -45.54855837 24.43665914 -59.125 39.25 C-60.18648116 41.87629377 -60.24487041 43.37311021 -60.125 46.25 C-51.26495641 51.33981228 -41.30139017 53.54363002 -31.51953125 56.24609375 C-21.13473648 59.23621984 -10.41601217 63.45133491 -3.8125 72.375 C-1.4512876 76.93223711 -1.16680377 81.2419275 -2.125 86.25 C-7.25602644 99.49847061 -19.85263107 105.80023617 -32.125 111.25 C-47.847333 117.84721424 -69.58449404 122.07041661 -86.125 116.25 C-90.42335671 113.89806897 -93.50957955 111.41529924 -96.125 107.25 C-96.94328796 103.91839902 -97.39266506 101.42103464 -96.625 98.0625 C-94.27933292 95.22815228 -91.37891297 93.93721413 -88.125 92.25 C-86.125 94.25 -86.125 94.25 -86.125 97.25 C-85.073125 97.724375 -84.02125 98.19875 -82.9375 98.6875 C-82.34582031 98.95433594 -81.75414063 99.22117187 -81.14453125 99.49609375 C-69.09838757 103.99301006 -55.25818509 100.92854809 -43.125 98.25 C-45.22257467 92.22872683 -47.5493063 87.33910672 -51.5625 82.3828125 C-53.35612538 79.93451386 -54.6404157 77.39927955 -56 74.6875 C-58.88396522 69.24251358 -62.30498017 65.98191834 -67.125 62.25 C-68.59314867 61.0325739 -70.0517258 59.80350308 -71.5 58.5625 C-72.47066406 57.75232422 -72.47066406 57.75232422 -73.4609375 56.92578125 C-76.76531604 53.59813244 -77.43401504 50.61894699 -77.5 46 C-77.33507126 37.74256753 -73.69723399 32.11550947 -68.125 26.25 C-67.465 26.25 -66.805 26.25 -66.125 26.25 C-65.135 22.785 -65.135 22.785 -64.125 19.25 C-62.9803125 19.3428125 -62.9803125 19.3428125 -61.8125 19.4375 C-58.52014423 19.20780076 -58.33634837 18.54640023 -56.125 16.25 C-54.44807709 15.50724382 -52.76858957 14.76946711 -51.07373047 14.06860352 C-49.23120944 13.29461541 -47.41882429 12.44999317 -45.609375 11.6015625 C-36.00519674 7.12320972 -26.37179467 4.15511573 -16.06933594 1.71142578 C-14.76172072 1.40110524 -13.46007454 1.06458968 -12.16552734 0.70361328 C-8.17301182 -0.18393085 -4.07312811 0.02275491 0 0 Z " fill="#2A2626" transform="translate(173.125,227.75)"/>
<path d="M0 0 C1.6125911 3.2251822 1.59020266 6.51243884 1 10 C-2.50730091 14.64201591 -6.91282513 17.49743665 -12.6875 18.4375 C-15 18 -15 18 -16.8125 16.1875 C-18 14 -18 14 -18 11 C-31.98856641 15.64307994 -31.98856641 15.64307994 -44 24 C-44.495 25.485 -44.495 25.485 -45 27 C-44.11699219 27.17015625 -43.23398438 27.3403125 -42.32421875 27.515625 C-18.1015382 32.40699336 -18.1015382 32.40699336 -12.625 39.875 C-11.54756676 43.53827302 -11.31991595 46.34931056 -12.8046875 49.953125 C-18.6346133 60.48719783 -30.0621868 64.20803085 -40.98828125 67.62109375 C-47.1080272 68.77374493 -53.74863472 68.77633285 -59.625 66.75 C-61.96662527 65.02459191 -63.47060522 63.46402493 -65 61 C-69.00815408 61.61663909 -71.70680005 63.73592503 -75 66 C-78.66166393 68.36236382 -81.68252078 68.37219648 -86 68 C-89.51732742 66.71482267 -91.4770624 65.62752512 -93.875 62.75 C-96.14741776 57.19520103 -95.12472386 52.44460489 -93 47 C-93.66 47 -94.32 47 -95 47 C-95.2578125 47.57105469 -95.515625 48.14210937 -95.78125 48.73046875 C-100.3094648 57.16281747 -108.53452211 63.76726106 -117 68 C-120.40814662 68.47653732 -123.59768384 68.54479788 -127 68 C-130.28459842 65.43801324 -131.51290768 64.02143311 -132.46875 60.0546875 C-133.7487414 42.71080406 -117.88426744 20.90765815 -108.81640625 7.01171875 C-106.72141651 4.6914613 -104.95788483 3.91831416 -102 3 C-99.525 4.98 -99.525 4.98 -97 7 C-97.59687408 10.95095004 -98.82274883 13.87103862 -100.765625 17.3515625 C-101.60673828 18.87716797 -101.60673828 18.87716797 -102.46484375 20.43359375 C-103.05394531 21.48675781 -103.64304688 22.53992188 -104.25 23.625 C-112.20757256 37.82622167 -112.20757256 37.82622167 -118 53 C-111.82104409 49.89430431 -107.43458869 45.8660576 -102.625 40.9375 C-101.87621582 40.17743652 -101.12743164 39.41737305 -100.35595703 38.63427734 C-92.42162721 30.50335687 -85.61113171 22.21158917 -79.62890625 12.5234375 C-73.88757396 3.62919132 -73.88757396 3.62919132 -69 2 C-66.66700175 1.96045766 -64.33291811 1.95598268 -62 2 C-61.11500245 4.95657664 -60.80017242 6.50304976 -61.96875 9.40917969 C-62.72671875 10.65296387 -62.72671875 10.65296387 -63.5 11.921875 C-64.05469971 12.85692871 -64.60939941 13.79198242 -65.1809082 14.75537109 C-65.7812085 15.74359863 -66.38150879 16.73182617 -67 17.75 C-71.13307439 24.81375931 -75.14345649 31.81991706 -78.3125 39.375 C-78.59544922 40.02049805 -78.87839844 40.66599609 -79.16992188 41.33105469 C-81.16981372 46.3049459 -81.29201762 50.74368281 -81 56 C-74.2499719 54.1015546 -69.39631964 48.49387579 -64.6875 43.5625 C-62 41 -62 41 -59 41 C-58.505 43.475 -58.505 43.475 -58 46 C-57.34 46 -56.68 46 -56 46 C-55.67 44.68 -55.34 43.36 -55 42 C-54.34 42 -53.68 42 -53 42 C-53.35698198 38.78716214 -53.5419687 37.38863262 -56.0625 35.25 C-58.64294756 32.25335122 -58.63589675 30.23995395 -58.4453125 26.37109375 C-57.29259582 20.23338301 -53.11738321 15.38089621 -48.328125 11.5703125 C-36.39305517 3.52014795 -13.95594206 -9.26017802 0 0 Z " fill="#2D2A2A" transform="translate(259,126)"/>
<path d="M0 0 C3.05917167 0.33990796 4.80401508 0.85698398 7.3125 2.6875 C9.5191686 5.71145327 9.27305506 7.30375312 9 11 C8.13647461 13.7277832 8.13647461 13.7277832 6.90234375 16.55078125 C6.43860352 17.62408691 5.97486328 18.69739258 5.49707031 19.80322266 C4.98241211 20.96128418 4.46775391 22.1193457 3.9375 23.3125 C3.39487586 24.55229522 2.85289903 25.79237392 2.31152344 27.03271484 C0.56015561 31.0304064 -1.21752427 35.0161003 -3 39 C-3.29469177 39.65985901 -3.58938354 40.31971802 -3.89300537 40.99957275 C-8.52484548 51.36552732 -13.23941763 61.69259752 -18 72 C-18.34838928 72.75476624 -18.69677856 73.50953247 -19.0557251 74.28717041 C-21.20111233 78.93159352 -23.35567332 83.57161985 -25.52111816 88.20672607 C-26.2048293 89.67132333 -26.88692986 91.13667374 -27.56726074 92.60284424 C-38.5191082 116.1779356 -38.5191082 116.1779356 -45 120 C-48.96088672 121.25080633 -52.87103179 121.08096016 -57 121 C-56.3561972 116.30429546 -54.43972705 112.33260379 -52.40234375 108.109375 C-52.04862198 107.36415588 -51.69490021 106.61893677 -51.33045959 105.85113525 C-50.20471111 103.48155375 -49.07149826 101.11564304 -47.9375 98.75 C-46.80121626 96.36948916 -45.66651364 93.98824338 -44.53382874 91.60601807 C-43.8295373 90.12583688 -43.12291749 88.64676098 -42.4138031 87.16888428 C-40.73792729 84.2076192 -40.73792729 84.2076192 -40 81 C-42.99883176 80.64719626 -45.99698535 80.31394908 -49 80 C-49.90347168 79.90364258 -50.80694336 79.80728516 -51.73779297 79.70800781 C-63.09627984 78.31397524 -63.09627984 78.31397524 -73.87011719 81.02246094 C-77.03730195 83.80123687 -79.03126668 87.3212669 -80.94628906 91.01025391 C-82.43425666 93.82001662 -84.15958234 96.45875103 -85.8762207 99.1328125 C-87.16377351 101.15032216 -88.41530117 103.18640125 -89.66015625 105.23046875 C-92.56719032 109.9656007 -95.73650894 114.50459509 -99 119 C-105.36 118.52 -105.36 118.52 -108 116.375 C-109.46647898 112.89211241 -109.20605056 110.47292047 -108 107 C-102.99558339 96.60497386 -95.72545544 87.32066403 -89 78 C-96.92 78.495 -96.92 78.495 -105 79 C-105.495 76.525 -105.495 76.525 -106 74 C-103.07599358 70.30199188 -100.46668585 68.36201206 -96 67 C-92.7341013 66.62628475 -89.47141636 66.4925451 -86.1875 66.375 C-85.30384766 66.33632812 -84.42019531 66.29765625 -83.50976562 66.2578125 C-81.34017028 66.16399216 -79.17011453 66.08092674 -77 66 C-76.72164307 65.40018311 -76.44328613 64.80036621 -76.15649414 64.18237305 C-74.44038783 60.94397863 -71.93432893 58.45790825 -69.4375 55.8125 C-68.90535889 55.24168701 -68.37321777 54.67087402 -67.82495117 54.08276367 C-63.86404318 49.85601497 -59.8002259 45.74292209 -55.64453125 41.70703125 C-53.91810956 40.08495647 -53.91810956 40.08495647 -53 38 C-52.34 38 -51.68 38 -51 38 C-51 37.34 -51 36.68 -51 36 C-49.63671875 34.625 -49.63671875 34.625 -47.6875 33 C-44.34397242 30.17086128 -41.12852355 27.24994429 -37.9375 24.25 C-18.41330128 6.46369936 -18.41330128 6.46369936 -8 3 C-5.70719095 3.35599993 -4.07475942 3.96262029 -2 5 C-1.34 3.35 -0.68 1.7 0 0 Z M-14.3515625 20.53515625 C-15.36887451 21.36635986 -15.36887451 21.36635986 -16.40673828 22.21435547 C-17.50477783 23.12918701 -17.50477783 23.12918701 -18.625 24.0625 C-19.38409668 24.6930127 -20.14319336 25.32352539 -20.92529297 25.97314453 C-32.02876547 35.28625401 -42.47399309 45.22630748 -52.5 55.6875 C-53.15371582 56.35894043 -53.80743164 57.03038086 -54.48095703 57.72216797 C-55.07505371 58.35396973 -55.66915039 58.98577148 -56.28125 59.63671875 C-56.80783203 60.19061279 -57.33441406 60.74450684 -57.87695312 61.31518555 C-59.36976303 63.21725748 -59.36976303 63.21725748 -59 67 C-54.89699077 67.25451584 -50.79284524 67.47426446 -46.6875 67.6875 C-44.93663086 67.79674805 -44.93663086 67.79674805 -43.15039062 67.90820312 C-42.03212891 67.96298828 -40.91386719 68.01777344 -39.76171875 68.07421875 C-38.73006592 68.13182373 -37.69841309 68.18942871 -36.63549805 68.2487793 C-34.02834786 68.21556277 -34.02834786 68.21556277 -32.31835938 66.86132812 C-30.58013029 64.40720618 -29.38578265 61.88541017 -28.14453125 59.14453125 C-27.60795898 57.97140381 -27.07138672 56.79827637 -26.51855469 55.58959961 C-26.23959351 54.97196747 -25.96063232 54.35433533 -25.67321777 53.71798706 C-24.23429202 50.53244299 -22.77494567 47.35628756 -21.31640625 44.1796875 C-20.88761673 43.24397163 -20.88761673 43.24397163 -20.45016479 42.28935242 C-17.85203929 36.63730057 -15.11179242 31.06666968 -12.27270508 25.5324707 C-10.99443108 23.03429947 -9.88992258 20.66976774 -9 18 C-11.63740447 18 -12.32403666 18.87550409 -14.3515625 20.53515625 Z " fill="#2D2B2B" transform="translate(145,75)"/>
<path d="M0 0 C2.01822917 0.06510417 4.03645833 0.13020833 6.0546875 0.1953125 C7.265625 1.8046875 7.265625 1.8046875 8.0546875 4.1953125 C6.71875 7.2109375 6.71875 7.2109375 4.6796875 10.4453125 C4.01195312 11.52296875 3.34421875 12.600625 2.65625 13.7109375 C2.12773437 14.53078125 1.59921875 15.350625 1.0546875 16.1953125 C2.26705078 16.10830078 2.26705078 16.10830078 3.50390625 16.01953125 C12.26641059 15.64958233 12.26641059 15.64958233 16.3046875 18.4453125 C18.0546875 21.1953125 18.0546875 21.1953125 18.0546875 25.1953125 C14.33388043 27.57589465 11.69244311 28.36744983 7.3671875 28.08203125 C1.63488008 27.78228866 -3.64545578 27.74992061 -8.9453125 30.1953125 C-14.76390483 35.8340983 -17.97461591 43.61540054 -21.35449219 50.86083984 C-23.86825253 56.12986051 -26.7730331 61.17124491 -29.6328125 66.2578125 C-35.91276609 76.59126591 -35.91276609 76.59126591 -38.1328125 88.1328125 C-38.10574219 88.90496094 -38.07867187 89.67710937 -38.05078125 90.47265625 C-37.99857422 91.32537109 -37.99857422 91.32537109 -37.9453125 92.1953125 C-28.88725373 92.1953125 -22.34713902 85.4107322 -15.9453125 79.6328125 C-14.9553125 78.8284375 -13.9653125 78.0240625 -12.9453125 77.1953125 C-11.4603125 77.6903125 -11.4603125 77.6903125 -9.9453125 78.1953125 C-9.48497522 81.95473365 -9.15673452 85.54455593 -10.82421875 89.03515625 C-15.78361975 95.32693364 -26.92534235 104.35251668 -35.09375 105.49609375 C-41.81780758 105.53148353 -45.79218848 104.20801538 -50.8203125 99.5078125 C-51.8721875 98.363125 -51.8721875 98.363125 -52.9453125 97.1953125 C-53.59757812 97.60523438 -54.24984375 98.01515625 -54.921875 98.4375 C-62.78154281 103.28313591 -69.50176891 106.65965945 -78.9453125 105.1953125 C-82.72374516 103.48937835 -85.2185323 101.01294023 -87.9453125 97.9453125 C-89.66866792 93.20608509 -88.83955144 88.47917708 -87.01806641 83.82714844 C-85.83559605 81.40381413 -84.57450983 79.04833032 -83.2578125 76.6953125 C-82.58322998 75.45237427 -82.58322998 75.45237427 -81.89501953 74.18432617 C-78.86471656 68.66395198 -75.69162072 63.2665346 -71.9453125 58.1953125 C-72.27402344 57.58300781 -72.60273438 56.97070312 -72.94140625 56.33984375 C-73.9453125 54.1953125 -73.9453125 54.1953125 -74.0078125 51.8828125 C-71.56180688 45.6958571 -65.46970193 41.31262199 -59.87109375 38.0078125 C-56.8930417 36.75135241 -54.91492792 37.06403043 -51.9453125 38.1953125 C-49.85954444 41.32396459 -49.59709221 42.38697055 -50.24560547 45.98730469 C-51.86966995 51.11223112 -54.82460303 55.69241372 -57.5078125 60.3203125 C-58.45648193 61.99057495 -58.45648193 61.99057495 -59.42431641 63.69458008 C-63.30300906 70.48651143 -67.30653297 77.16473273 -71.6875 83.64453125 C-73.18466304 86.6807035 -73.190031 88.85245783 -72.9453125 92.1953125 C-65.89601525 91.94355188 -62.11717125 89.90724189 -56.9453125 85.1953125 C-56.13271973 84.48435425 -56.13271973 84.48435425 -55.30371094 83.7590332 C-50.42674688 79.25394094 -47.91639579 74.68388933 -45.3203125 68.6328125 C-41.65375693 60.51178044 -37.57281679 52.78560765 -33.0078125 45.1328125 C-32.17419189 43.73276978 -32.17419189 43.73276978 -31.32373047 42.30444336 C-29.00904396 38.46282987 -26.68503316 34.75124897 -23.9453125 31.1953125 C-25.16347656 31.23011719 -26.38164062 31.26492188 -27.63671875 31.30078125 C-29.26040278 31.32893762 -30.88410185 31.35623579 -32.5078125 31.3828125 C-33.30767578 31.40794922 -34.10753906 31.43308594 -34.93164062 31.45898438 C-40.39461626 31.52587795 -44.088548 30.72899911 -48.9453125 28.1953125 C-49.9453125 27.1953125 -49.9453125 27.1953125 -50.3828125 23.5703125 C-50.35807116 18.9931646 -48.5085973 16.78295024 -45.453125 13.54296875 C-42.17443153 10.61253029 -39.20955992 10.96687067 -34.9453125 11.1953125 C-32.9453125 13.1953125 -32.9453125 13.1953125 -32.9453125 17.1953125 C-26.6753125 17.1953125 -20.4053125 17.1953125 -13.9453125 17.1953125 C-13.2853125 15.5453125 -12.6253125 13.8953125 -11.9453125 12.1953125 C-10.66988671 10.42300209 -9.33286068 8.69378557 -7.9453125 7.0078125 C-6.8934375 5.71810547 -6.8934375 5.71810547 -5.8203125 4.40234375 C-2.27425527 0.22833888 -2.27425527 0.22833888 0 0 Z " fill="#2A2524" transform="translate(415.9453125,240.8046875)"/>
<path d="M0 0 C1.134375 0.020625 2.26875 0.04125 3.4375 0.0625 C4.6953125 2.14453125 4.6953125 2.14453125 5.4375 5.0625 C4.1807327 7.5729083 2.96388455 9.52083945 1.3125 11.75 C0.38456406 13.06710806 -0.54247784 14.38484633 -1.46875 15.703125 C-2.21705078 16.75016602 -2.21705078 16.75016602 -2.98046875 17.81835938 C-5.80217523 21.82100227 -8.48470416 25.91657805 -11.1875 30 C-12.22077691 31.55116593 -13.25458163 33.10198048 -14.2890625 34.65234375 C-14.94769287 35.64028931 -14.94769287 35.64028931 -15.61962891 36.64819336 C-15.93077637 37.11491455 -16.24192383 37.58163574 -16.5625 38.0625 C-14.66672762 38.0625 -13.20810881 35.79979696 -11.9375 34.5625 C-7.89663007 30.94188055 -3.73128124 28.16358352 1 25.5625 C1.61246582 25.21251953 2.22493164 24.86253906 2.85595703 24.50195312 C7.57316778 22.0071899 11.11145133 21.58136535 16.4375 22.0625 C19.2475346 23.85613911 20.94690468 25.08130935 22.4375 28.0625 C22.86881683 33.58061687 21.76950134 37.73075273 19.5 42.6875 C19.02965332 43.73019043 19.02965332 43.73019043 18.54980469 44.79394531 C10.69154522 61.59356746 -2.4502387 77.89455189 -19.6875 85.5 C-24.27375012 87.15594588 -27.71427574 87.80205963 -32.5625 87.0625 C-35.78204645 84.52796343 -37.26682435 82.94952695 -38.5625 79.0625 C-41.00448321 82.93469156 -43.44028449 86.81073536 -45.875 90.6875 C-46.56529297 91.78191406 -47.25558594 92.87632812 -47.96679688 94.00390625 C-48.63388672 95.06738281 -49.30097656 96.13085938 -49.98828125 97.2265625 C-50.60098877 98.20061035 -51.21369629 99.1746582 -51.8449707 100.17822266 C-53.57184567 103.07819436 -55.06214319 106.04058984 -56.5625 109.0625 C-57.3786273 110.43060275 -58.21811329 111.7851858 -59.0859375 113.12109375 C-59.55 113.83716797 -60.0140625 114.55324219 -60.4921875 115.29101562 C-60.96914062 116.01998047 -61.44609375 116.74894531 -61.9375 117.5 C-62.40671875 118.22509766 -62.8759375 118.95019531 -63.359375 119.69726562 C-66.31408701 124.23952317 -69.38296154 128.67473693 -72.5625 133.0625 C-74.4375 132.75 -74.4375 132.75 -76.5625 132.0625 C-79.05446825 128.32454762 -79.14112926 125.39084465 -78.5625 121.0625 C-77.49017746 118.34246233 -76.43155524 116.07183355 -75 113.5625 C-74.60578857 112.84529785 -74.21157715 112.1280957 -73.80541992 111.38916016 C-69.01235989 102.82387622 -63.71778412 94.55169418 -58.46875 86.26171875 C-54.6977602 80.30127282 -51.02544972 74.28480052 -47.375 68.25 C-41.70095233 58.88912872 -35.90501537 49.61338339 -30.03027344 40.37744141 C-28.5359789 38.02067148 -27.05177884 35.65782084 -25.5703125 33.29296875 C-20.4373429 25.10717609 -15.23287447 16.97833172 -9.875 8.9375 C-9.35744141 8.16075928 -8.83988281 7.38401855 -8.30664062 6.58374023 C-3.9414281 0.06914786 -3.9414281 0.06914786 0 0 Z " fill="#2B2625" transform="translate(221.5625,258.9375)"/>
<path d="M0 0 C2.125 0.375 2.125 0.375 4 1 C4.495 2.98 4.495 2.98 5 5 C6.57587891 4.54947266 6.57587891 4.54947266 8.18359375 4.08984375 C22.42688328 0.17200631 22.42688328 0.17200631 30 2 C32 4 32 4 32.5 7.1875 C31.84006082 12.21953628 29.99630582 14.9066252 26 18 C23.27256658 19.10465942 20.93844851 19.54403385 18 20 C16 17 16 17 16 14 C14.02 14.99 12.04 15.98 10 17 C10.9305602 22.96700464 10.9305602 22.96700464 13.6875 28.1875 C15 30 15 30 14.6875 33.25 C14.460625 34.1575 14.23375 35.065 14 36 C14.721875 35.731875 15.44375 35.46375 16.1875 35.1875 C17.115625 35.125625 18.04375 35.06375 19 35 C21.5625 37.375 21.5625 37.375 24 40 C27.05133626 41.25643258 27.76820321 41.0772656 31 40 C32.64037395 41.64037395 32.24911331 43.49476841 32.3125 45.75 C32.26319537 49.21118487 32.11887408 50.78127169 30.4375 53.875 C27.49641391 56.43902377 24.45864381 58.25214965 21 60 C20.05125 60.49886719 19.1025 60.99773437 18.125 61.51171875 C7.55774347 66.96706493 -3.74169107 70.86116836 -15.6796875 67.171875 C-18.50482233 65.78517878 -20.77440006 64.22559994 -23 62 C-26.76536125 62.34631249 -29.40233743 63.67093719 -32.625 65.5625 C-38.11570243 68.38160692 -42.91008595 69.03576491 -49 68 C-53.37085398 65.85430805 -56.51439567 63.20640733 -59 59 C-60.87407158 49.62964212 -54.42695964 40.6966627 -49.49609375 33.078125 C-44.13987203 25.67006212 -44.13987203 25.67006212 -43.375 17 C-43.54773438 16.31421875 -43.72046875 15.6284375 -43.8984375 14.921875 C-44 13 -44 13 -42.7890625 11.078125 C-40.95875143 9.20785081 -39.06761415 7.60240097 -37 6 C-36.4121875 5.49082031 -35.824375 4.98164063 -35.21875 4.45703125 C-32.09884353 1.92565259 -30.33014057 1.04401874 -26.25 0.5 C-23 1 -23 1 -21 2.0625 C-19.39578521 5.17066615 -20.32325524 7.64046123 -21 11 C-22.37939453 14.08276367 -22.37939453 14.08276367 -24.1328125 17.16796875 C-24.77476562 18.30943359 -25.41671875 19.45089844 -26.078125 20.62695312 C-26.76021125 21.81392015 -27.4425036 23.00076876 -28.125 24.1875 C-28.78485618 25.35425159 -29.4437177 26.52156629 -30.1015625 27.68945312 C-32.70821118 32.29504966 -35.31657138 36.88858978 -38.08886719 41.39697266 C-38.73758789 42.45835449 -39.38630859 43.51973633 -40.0546875 44.61328125 C-40.64491699 45.55598877 -41.23514648 46.49869629 -41.84326172 47.4699707 C-43.22552745 49.89793119 -43.22552745 49.89793119 -42.68408203 52.33666992 C-42.34546143 53.16001831 -42.34546143 53.16001831 -42 54 C-39.28642465 54.87134188 -39.28642465 54.87134188 -36 55 C-32.83333333 53.25 -32.83333333 53.25 -30 51 C-28.88625 50.505 -28.88625 50.505 -27.75 50 C-25.85479844 49.13609387 -25.85479844 49.13609387 -25.125 47.1875 C-23.17395473 43.39380086 -19.9873579 40.77662283 -16.05078125 39.23828125 C-14.38415237 38.76161863 -12.69296722 38.37245279 -11 38 C-11 37.34 -11 36.68 -11 36 C-11.99 35.67 -12.98 35.34 -14 35 C-15.77248504 31.45502992 -15.64156741 27.86139639 -15 24 C-12.92940858 19.7643928 -10.28946479 16.17893924 -6.8125 13 C-4.36881528 10.30352031 -3.68924757 7.48780611 -2.7109375 4.0234375 C-2 2 -2 2 0 0 Z " fill="#2D2928" transform="translate(370,126)"/>
<path d="M0 0 C2.375 1.625 2.375 1.625 4 4 C3.65018629 8.48386912 2.33837158 11.68773711 0.12109375 15.5625 C-0.46712158 16.60051758 -1.05533691 17.63853516 -1.66137695 18.70800781 C-2.28874756 19.79436523 -2.91611816 20.88072266 -3.5625 22 C-4.19567139 23.1147168 -4.82884277 24.22943359 -5.48120117 25.37792969 C-8.18332203 30.1278028 -10.9127342 34.86116373 -13.671875 39.578125 C-14.0423999 40.21492188 -14.4129248 40.85171875 -14.79467773 41.5078125 C-15.7362602 43.11950174 -16.68987744 44.72414375 -17.64453125 46.328125 C-18.96777325 48.93647523 -19.59494026 51.11723716 -20 54 C-18.40686815 55.34317691 -18.40686815 55.34317691 -16 56 C-5.16657212 52.7295312 -0.14743174 44.67104911 5.25 35.25 C6.56483045 33.01285994 7.87993682 30.77588202 9.1953125 28.5390625 C10.46418944 26.35975203 11.73244865 24.18008174 13 22 C15.02469973 18.53127358 17.06706732 15.07408941 19.125 11.625 C19.76163574 10.52140137 19.76163574 10.52140137 20.41113281 9.39550781 C22.75716257 5.47045563 24.62030391 2.81630589 29 1 C31.45703125 0.70703125 31.45703125 0.70703125 33.8125 0.8125 C34.60269531 0.83957031 35.39289063 0.86664063 36.20703125 0.89453125 C37.09455078 0.94673828 37.09455078 0.94673828 38 1 C37.59683075 7.31631828 35.28767869 11.64993984 32 17 C32.44988281 16.50371094 32.89976562 16.00742187 33.36328125 15.49609375 C39.80197649 8.69610899 47.5724514 1.66938046 57.25390625 0.796875 C58.39666016 0.77367187 58.39666016 0.77367187 59.5625 0.75 C60.70912109 0.71132813 60.70912109 0.71132813 61.87890625 0.671875 C64.58798188 1.09095852 65.32283126 1.8647407 67 4 C67.82219774 10.65262703 64.76702155 15.99186639 61.1875 21.3125 C60.74857422 22.00150391 60.30964844 22.69050781 59.85742188 23.40039062 C57.55715481 26.9447843 55.29312167 30.29418666 52 33 C48.60845705 32.83849795 47.41703243 32.41703243 45 30 C44.40120331 24.95299931 44.50236113 22.16952035 47.5 18 C48.325 17.01 49.15 16.02 50 15 C45.14175362 18.03826112 41.0366888 21.50855328 36.875 25.4375 C35.89865601 26.35523193 35.89865601 26.35523193 34.90258789 27.29150391 C26.1895024 35.56749942 18.00390631 44.21454233 11 54 C9.77857075 55.61006583 8.5491482 57.21409372 7.3125 58.8125 C6.75175781 59.54082031 6.19101562 60.26914062 5.61328125 61.01953125 C2.63713029 64.67306282 2.63713029 64.67306282 1 66 C-0.010625 65.814375 -1.02125 65.62875 -2.0625 65.4375 C-6.16042213 64.98217532 -7.364369 65.34379874 -11 66.9375 C-16.42545053 69.30496932 -20.34936273 69.91960885 -26.0625 67.9375 C-29.72599385 65.52115299 -33.0142916 62.97845831 -35 59 C-35.63840561 52.7266877 -34.47786161 48.83349851 -31.5 43.375 C-31.14631348 42.69058838 -30.79262695 42.00617676 -30.42822266 41.30102539 C-28.60836575 37.82292514 -26.68188364 34.43600652 -24.6171875 31.09765625 C-24.24142578 30.48035645 -23.86566406 29.86305664 -23.47851562 29.22705078 C-22.43301783 27.53158644 -21.35412335 25.85684898 -20.2734375 24.18359375 C-18.62632127 20.06580318 -19.66971221 18.12195012 -21 14 C-18.3185475 7.10483644 -7.33589736 -0.91851803 0 0 Z " fill="#2B2726" transform="translate(273,278)"/>
<path d="M0 0 C2.07179877 3.97785363 1.60684007 6.8226397 0.5625 11 C0.315 12.19625 0.0675 13.3925 -0.1875 14.625 C-1.70166257 18.71323893 -3.40457231 20.89124912 -6.4375 24 C-7.0975 24 -7.7575 24 -8.4375 24 C-8.2828125 25.2684375 -8.2828125 25.2684375 -8.125 26.5625 C-8.49929758 30.67977339 -9.80418669 32.24446757 -12.44140625 35.2890625 C-13.66265319 36.9850693 -13.66265319 36.9850693 -13.15234375 39.1484375 C-12.58651471 40.98597729 -12.58651471 40.98597729 -11.4375 42 C-11.01423176 45.64010688 -11.25947729 47.65137219 -12.9375 50.9375 C-20.14145609 59.76234621 -30.03035979 66.01139893 -41.4375 68 C-43.89222825 68.16900499 -46.35240297 68.26585145 -48.8125 68.3125 C-50.09898437 68.34988281 -51.38546875 68.38726562 -52.7109375 68.42578125 C-57.03748277 67.93144851 -59.094654 66.73640049 -62.4375 64 C-64.90522206 60.2984169 -65.10579025 57.29376485 -64.4375 53 C-62.8125 50 -62.8125 50 -60.4375 48 C-57.1875 47.6875 -57.1875 47.6875 -54.4375 48 C-53.7775 49.98 -53.1175 51.96 -52.4375 54 C-43.44370466 54.72922665 -35.33765896 53.65435722 -27.4375 49 C-26.74785957 46.95896298 -26.74785957 46.95896298 -26.4375 45 C-27.62085938 44.75765625 -28.80421875 44.5153125 -30.0234375 44.265625 C-52.8681661 39.46956088 -52.8681661 39.46956088 -57.4375 34 C-58.89924875 29.61475376 -59.41216165 26.06800903 -57.37890625 21.75390625 C-54.01084479 16.34127631 -49.99161149 12.18986133 -44.4375 9 C-43.7775 9 -43.1175 9 -42.4375 9 C-42.4375 8.34 -42.4375 7.68 -42.4375 7 C-43.22125 7.04125 -44.005 7.0825 -44.8125 7.125 C-47.4375 7 -47.4375 7 -49.4375 5 C-49.0625 2.875 -49.0625 2.875 -48.4375 1 C-47.84582031 1.13277344 -47.25414062 1.26554687 -46.64453125 1.40234375 C-45.45923828 1.66724609 -45.45923828 1.66724609 -44.25 1.9375 C-43.47269531 2.11152344 -42.69539063 2.28554687 -41.89453125 2.46484375 C-41.08371094 2.64144531 -40.27289063 2.81804687 -39.4375 3 C-38.23673828 3.35384766 -38.23673828 3.35384766 -37.01171875 3.71484375 C-33.55648121 4.09759389 -31.57329758 3.07290653 -28.4375 1.625 C-19.92169037 -2.26359674 -8.52101199 -4.9576797 0 0 Z " fill="#2A2525" transform="translate(318.4375,126)"/>
<path d="M0 0 C42.88202777 11.44859758 42.88202777 11.44859758 46 16 C45.87163021 18.90207408 45.38254016 20.50248289 43.609375 22.80859375 C37.99041766 27.73108369 29.52122978 34.22767958 21.7265625 33.90625 C19.35994579 32.66404394 19.03253551 31.48924026 18.125 29 C16.37681571 24.66724521 14.16602967 21.08875 11.5078125 17.26171875 C10.00249018 15.00373527 8.71278573 12.70666848 7.4375 10.3125 C5.33985485 6.43049437 2.94396889 3.28042248 0 0 Z " fill="#D83114" transform="translate(109,291)"/>
<path d="M0 0 C0 1.98 0 3.96 0 6 C5.64707788 6.29209024 9.05092807 6.0637112 14 3 C14.66 2.34 15.32 1.68 16 1 C15.63258872 7.12352138 14.21348564 9.78651436 10 14 C9.34 14 8.68 14 8 14 C8.12375 14.825 8.2475 15.65 8.375 16.5 C7.84131051 21.48110188 5.18073144 24.27021373 2 28 C0.948125 27.4225 -0.10375 26.845 -1.1875 26.25 C-9.8843371 21.90927777 -19.46243832 19.63624083 -29 18 C-28.77533951 14.36050001 -28.21236791 13.19524677 -25.48046875 10.68359375 C-17.79913606 5.44425058 -9.65423025 0 0 0 Z " fill="#D73619" transform="translate(302,136)"/>
<path d="M0 0 C6.625 0.75 6.625 0.75 10 3 C12.90780004 3.11711179 15.72311548 3.14151171 18.625 3.0625 C21.42096418 3.00082432 24.20241084 2.97938619 27 3 C28 4 28 4 28.375 7.1875 C28.2622543 14.09004218 26.067341 22.59018889 21.390625 27.7890625 C17.11302208 30.51652491 12.84551498 30.63547737 8 30 C4.60562319 27.28822182 3.37672354 24.99439405 2.375 20.8125 C2.14039063 19.84570312 1.90578125 18.87890625 1.6640625 17.8828125 C1.44492187 16.93148438 1.22578125 15.98015625 1 15 C0.78085937 14.17242187 0.56171875 13.34484375 0.3359375 12.4921875 C-0.81013218 7.98431342 -1.18291048 4.61335089 0 0 Z " fill="#DC381B" transform="translate(368,418)"/>
<path d="M0 0 C0.47826903 8.86736635 -4.31413995 15.32424302 -10.00146484 21.74951172 C-25.13908784 38.22538089 -25.13908784 38.22538089 -35.875 39.4375 C-36.90625 39.293125 -37.9375 39.14875 -39 39 C-39.66 38.01 -40.32 37.02 -41 36 C-35.53073905 28.73963605 -29.4475118 22.20385289 -23.0625 15.75 C-21.95479248 14.61618896 -21.95479248 14.61618896 -20.82470703 13.45947266 C-7.35342005 0 -7.35342005 0 0 0 Z " fill="#D72F12" transform="translate(229,294)"/>
<path d="M0 0 C0.99 0.66 1.98 1.32 3 2 C3.61875 1.773125 4.2375 1.54625 4.875 1.3125 C5.57625 1.209375 6.2775 1.10625 7 1 C9.87030999 3.46026571 11.90326143 5.85489214 14 9 C-6.25523797 24.56560159 -6.25523797 24.56560159 -20 23 C-23.1875 21 -23.1875 21 -25 19 C-24.27777152 14.25392713 -21.65574538 12.70692645 -17.96484375 9.94921875 C-12.23098955 6.17953068 -6.11396129 3.10128471 0 0 Z " fill="#D73114" transform="translate(382,160)"/>
<path d="M0 0 C3.21127393 0.75890555 6.41836291 1.53425498 9.625 2.3125 C10.98044922 2.63250977 10.98044922 2.63250977 12.36328125 2.95898438 C17.28463922 4.16238213 21.58588925 5.49964823 26 8 C24.63377874 11.34198739 23.44973884 12.65930016 20.1875 14.1875 C19.18783203 14.67283203 19.18783203 14.67283203 18.16796875 15.16796875 C13.95576137 16.78454564 9.86332413 17.17581282 5.375 17.25 C4.43398437 17.27578125 3.49296875 17.3015625 2.5234375 17.328125 C0 17 0 17 -1.8359375 15.734375 C-3 14 -3 14 -3 10 C-3.99 10 -4.98 10 -6 10 C-6 9.34 -6 8.68 -6 8 C-5.34 8 -4.68 8 -4 8 C-3.67 6.68 -3.34 5.36 -3 4 C-2.34 4 -1.68 4 -1 4 C-0.67 2.68 -0.34 1.36 0 0 Z " fill="#D62F12" transform="translate(207,164)"/>
<path d="M0 0 C1 1 1 1 1.3125 4.1875 C0.88241156 9.43457897 -1.23424103 12.10811539 -4.75 15.875 C-8.19778573 17.59889287 -11.17509018 17.19124549 -15 17 C-16.45887389 14.08225221 -16.36823233 12.25271895 -16 9 C-12.02368619 1.61541721 -8.23656727 -0.39854358 0 0 Z " fill="#2B2524" transform="translate(292,252)"/>
<path d="M0 0 C0.96878185 2.98086722 1.35581244 5.11711961 0.1640625 8.07421875 C-2.45863108 12.59293603 -4.83478873 15.41881288 -10 17 C-13.375 16.6875 -13.375 16.6875 -16 16 C-16.47069944 11.29300559 -16.85562871 7.38992621 -13.75 3.5625 C-8.80761811 -1.04290131 -6.72953601 -1.29414154 0 0 Z " fill="#323030" transform="translate(366,101)"/>
<path d="M0 0 C2.60774762 3.20321755 3.34789916 4.8252101 3 9 C-2.07476794 10.26305335 -6.72796354 11.27036084 -12 11 C-10.50253294 7.11002809 -8.29577922 5.53051948 -4.875 3.25 C-3.50988281 2.32960937 -3.50988281 2.32960937 -2.1171875 1.390625 C-1.06917969 0.70226562 -1.06917969 0.70226562 0 0 Z " fill="#D53216" transform="translate(378,143)"/>
<path d="M0 0 C0.598125 0.226875 1.19625 0.45375 1.8125 0.6875 C2.1425 2.3375 2.4725 3.9875 2.8125 5.6875 C-3.9375 9.6875 -3.9375 9.6875 -6.1875 9.6875 C-5.58414218 3.29190714 -5.58414218 3.29190714 -3.875 0.6875 C-2.1875 -0.3125 -2.1875 -0.3125 0 0 Z " fill="#D9371B" transform="translate(372.1875,126.3125)"/>
<path d="M0 0 C1.99609375 0.26953125 1.99609375 0.26953125 4.4375 0.8125 C5.64212891 1.06966797 5.64212891 1.06966797 6.87109375 1.33203125 C9 2 9 2 11 4 C8.875 5.625 8.875 5.625 6 7 C2.75 6.4375 2.75 6.4375 0 5 C-0.9375 2.9375 -0.9375 2.9375 -1 1 C-0.67 0.67 -0.34 0.34 0 0 Z " fill="#DC482E" transform="translate(270,127)"/>
<path d="M0 0 C0.99 0 1.98 0 3 0 C1.75023244 3.65316671 1.32901247 4.78065836 -2 7 C-1.34 4.69 -0.68 2.38 0 0 Z M-4 7 C-3.34 7.33 -2.68 7.66 -2 8 C-3.32 8.99 -4.64 9.98 -6 11 C-5.34 9.68 -4.68 8.36 -4 7 Z " fill="#6C3026" transform="translate(109,247)"/>
</svg>
